<svg width="206" height="76" viewBox="0 0 206 76" fill="none" xmlns="http://www.w3.org/2000/svg">
<g clip-path="url(#clip0_26_133)">
<path d="M205.956 42.662C205.722 42.4039 205.486 42.0143 205.076 41.9498C204.664 43.1807 204.254 44.2156 203.784 45.3174L202.903 47.3897C202.491 48.427 202.082 49.3974 201.553 50.3678C201.082 51.3382 200.495 52.311 199.79 53.3459C199.32 54.0582 198.851 54.6414 198.205 55.2246C197.559 55.7432 196.854 56.1305 196.091 56.195C195.15 56.3241 194.387 56.0659 193.8 55.4182C193.388 54.9641 193.212 54.5123 192.978 53.9937C192.507 52.6982 192.449 51.4028 192.39 50.0428C192.332 48.8119 192.507 47.581 192.507 46.2879L192.624 46.0942C192.8 46.0297 192.859 46.2233 193.036 46.2879C193.565 46.742 194.094 47.1292 194.74 47.4542C195.269 47.7769 195.857 47.9083 196.503 47.9083C196.796 47.9083 197.091 47.8438 197.325 47.7147C197.854 47.4565 198.205 47.0024 198.617 46.5483C198.91 46.2233 199.087 45.7715 199.205 45.2529C199.497 44.4116 199.675 43.6347 199.675 42.7934C199.616 42.3393 199.558 42.0811 199.558 41.7561C199.558 41.0439 199.382 40.5252 199.205 39.813C199.029 39.1007 198.676 38.5175 198.264 38.0657L197.91 37.6116C197.735 37.418 197.676 37.2221 197.498 37.0285C197.206 36.7703 196.911 36.5098 196.618 36.3162C195.855 35.733 195.092 35.6685 194.209 36.058C193.797 36.2517 193.388 36.5121 192.917 36.9639C192.505 37.2889 192.33 37.6762 192.037 38.1303C191.625 38.7135 191.215 39.4257 190.92 40.138C190.795 40.5068 190.339 41.3389 190.025 41.9728C190.011 41.9659 189.996 41.9567 189.982 41.9498C189.453 43.2452 188.397 44.9924 187.926 46.0297C187.514 46.8065 187.339 47.6479 186.927 48.4247C185.988 50.4969 185.047 52.5691 183.93 54.4478C183.518 55.0309 183.226 55.6141 182.814 56.1305L181.756 57.3614C181.344 57.7509 180.876 57.9445 180.464 57.9445C180.405 57.6218 180.288 57.4259 180.288 57.2323C180.288 56.3909 180.229 55.6141 180.288 54.8373C180.464 54.0605 180.347 53.2192 180.522 52.4424V52.1174C180.464 51.9237 180.522 51.7278 180.522 51.5342C180.522 51.0155 180.639 50.5637 180.698 50.0451C180.756 49.3328 180.932 48.556 180.873 47.8438C180.873 47.6502 180.932 47.7147 180.932 47.5211C181.108 46.9379 181.225 46.3547 181.285 45.7738C181.461 44.8034 181.461 44.0243 181.639 43.183C181.814 42.4707 181.873 41.823 182.051 41.1107L182.168 40.0734L182.402 39.103C182.578 38.1326 182.636 37.2889 182.931 36.4476C183.107 35.8644 183.165 35.2812 183.343 34.569C183.518 33.8567 183.577 33.209 183.755 32.4967C183.813 32.0426 183.989 31.5908 184.047 31.1367C184.106 30.6826 184.282 30.2308 184.282 29.7768C184.34 29.3227 184.457 29 184.516 28.7395C184.691 28.4813 184.692 28.1563 184.75 27.8981C184.75 27.8336 184.809 27.64 184.867 27.3795C184.926 27.1213 184.926 26.7963 185.101 26.4736L185.218 25.6323C185.511 24.595 185.806 23.56 186.04 22.4582C186.099 22.0041 186.157 21.7459 186.333 21.2918L186.45 20.8377L186.626 19.9964C186.684 19.5423 186.743 19.2841 186.918 18.9591C186.977 18.4405 187.094 17.9887 187.153 17.6637C187.328 17.145 187.328 16.5619 187.506 16.0455C187.564 15.7874 187.506 15.5914 187.506 15.3333L186.801 14.5565C186.743 14.3628 186.626 14.2983 186.509 14.3628C186.216 14.5565 186.216 14.8815 186.038 15.1397L185.333 16.8223L184.746 18.5696C184.334 19.54 184.1 20.4482 183.688 21.4186C183.395 22.4559 183.1 23.4909 182.688 24.4613C182.688 24.5258 182.63 24.5904 182.571 24.784L182.101 26.7272L181.747 27.6976C181.572 28.4099 181.336 29.1221 181.16 29.8989C180.984 30.4821 180.867 31.0653 180.689 31.5816L180.102 33.9766C180.043 34.4307 179.926 34.7534 179.868 35.0784C179.692 35.5325 179.575 35.9843 179.514 36.5029L179.044 38.7042C178.985 39.2874 178.81 39.8061 178.751 40.3869C178.693 41.1637 178.517 41.876 178.339 42.5883V42.6021C178.105 43.1046 177.879 43.508 177.693 44.0773C177.281 45.1146 177.047 46.2141 176.635 47.1845C176.223 48.4154 175.872 49.6463 175.402 50.8749C174.931 51.9099 174.58 53.0117 173.934 53.9821C173.641 54.4362 173.288 54.888 172.995 55.213C172.761 55.4712 172.466 55.6026 172.173 55.6671C172.115 55.6026 172.056 55.4735 172.056 55.409C171.88 54.8903 171.822 54.4385 171.822 53.9845C171.822 52.7536 171.705 51.5227 171.88 50.2941L172.056 47.5096C172.232 46.5391 172.173 45.7623 172.349 44.7896L172.466 44.1419C172.466 43.6232 172.524 43.04 172.583 42.5237C172.642 42.0696 172.7 41.8115 172.7 41.3574C172.7 40.6451 172.759 40.0619 172.934 39.5433C173.11 39.1537 173.227 38.7665 173.288 38.3769C173.346 37.9228 173.58 37.6647 173.405 37.2106L172.993 36.6274C172.7 36.1087 172.347 35.9151 171.935 35.461C171.759 35.3965 171.642 35.3319 171.523 35.3319L171.111 36.0442C170.935 36.7565 170.699 37.2751 170.523 37.9874L169.114 42.0673L168.644 43.2337L167.293 46.9886C166.647 48.7358 166.118 50.4854 165.238 52.1035C164.767 53.074 164.238 54.0467 163.711 55.0171C163.653 55.2107 163.536 55.2753 163.419 55.2107C163.419 55.0171 163.36 54.7566 163.36 54.563C163.36 54.1089 163.36 53.5926 163.419 53.1385C163.419 52.5553 163.477 52.0367 163.477 51.5203C163.477 51.004 163.653 50.4854 163.711 49.9667L164.182 47.6363L164.652 45.4995C164.828 44.9164 164.828 44.2686 165.006 43.7523C165.181 43.04 165.24 42.5214 165.417 41.9382C165.652 40.901 165.946 39.866 166.122 38.8956C166.298 38.1833 166.475 37.6001 166.298 36.8879C165.886 36.3047 165.769 35.657 165.123 35.2052L164.301 35.3988L163.948 35.9174L163.243 37.6001C162.71 39.0431 162.298 40.486 161.938 41.9636L161.246 43.4273L159.013 47.7654C158.367 48.8027 157.955 49.8377 157.309 50.8081C156.663 51.6494 156.192 52.4908 155.546 53.2676C155.253 53.7217 154.959 54.0444 154.547 54.4985C154.135 55.0171 153.606 55.4689 152.96 55.8585C152.548 56.1166 152.138 56.1166 151.726 56.1166C151.55 56.0521 151.314 55.923 151.139 55.7271C150.904 55.3375 150.727 54.8857 150.61 54.3671C150.551 53.7839 150.434 53.1362 150.434 52.553V52.0344C150.375 51.5803 150.317 51.2576 150.375 51.0639C150.375 50.7389 150.434 50.4162 150.375 50.0935C150.375 49.6394 150.434 49.4458 150.492 48.9917V48.2149C150.785 46.6613 151.139 45.1077 151.668 43.6163C151.96 42.8395 152.255 42.0627 152.667 41.2859C152.667 41.2214 152.726 41.1568 152.784 40.9632C153.018 40.6382 153.255 40.3155 153.43 39.9928C153.901 39.216 154.43 38.5682 155.076 37.9851C155.251 37.856 155.429 37.7914 155.488 37.856C155.9 38.4392 155.722 39.0223 155.722 39.7346C155.898 39.9928 156.075 40.1242 156.309 40.1242C156.956 39.6701 157.131 39.0869 156.956 38.2455C156.838 37.9205 156.663 37.6624 156.368 37.4687C156.251 37.4042 156.075 37.2106 155.839 36.9501C155.663 36.7565 155.546 36.6274 155.427 36.5605L154.486 35.9128C153.606 35.8483 152.901 36.1064 152.314 36.6896C151.609 37.4664 150.963 38.1787 150.551 39.1514C150.492 39.345 150.375 39.4741 150.317 39.541C150.024 39.9951 149.788 40.4469 149.612 41.03C149.319 41.8068 149.025 42.5836 148.79 43.3604C148.772 43.4273 148.755 43.4941 148.736 43.5587C148.51 44.1465 148.276 44.7158 148.027 45.3013L147.147 47.3736C146.735 48.4108 146.325 49.3813 145.796 50.3517C145.326 51.3221 144.738 52.2948 144.034 53.3298C143.563 54.0421 143.095 54.6253 142.449 55.2084C141.803 55.7271 141.098 56.1143 140.335 56.1789C139.394 56.3079 138.631 56.0498 138.043 55.4021C137.631 54.948 137.456 54.4962 137.221 53.9775C136.751 52.6821 136.692 51.3867 136.634 50.0267C136.575 48.7958 136.751 47.5649 136.751 46.2717L136.868 46.0781C137.044 46.0136 137.102 46.2072 137.28 46.2717C137.809 46.7258 138.338 47.1131 138.984 47.4381C139.513 47.7608 140.101 47.8922 140.747 47.8922C141.039 47.8922 141.334 47.8276 141.568 47.6986C142.097 47.4404 142.449 46.9863 142.861 46.5322C143.153 46.2072 143.331 45.7554 143.448 45.2368C143.741 44.3954 143.919 43.6186 143.919 42.7773C143.86 42.3232 143.802 42.065 143.802 41.74C143.802 41.0277 143.626 40.5091 143.448 39.7968C143.273 39.0846 142.919 38.5014 142.507 38.0496L142.154 37.5955C141.978 37.4019 141.92 37.206 141.742 37.0123C141.449 36.7542 141.154 36.4937 140.862 36.3001C140.099 35.7169 139.335 35.6523 138.453 36.0419C138.041 36.2355 137.631 36.496 137.161 36.9478C136.749 37.2728 136.573 37.66 136.281 38.1141C135.869 38.6973 135.459 39.4096 135.164 40.1218C135.039 40.4907 134.583 41.3228 134.269 41.9567C134.254 41.9498 134.24 41.9405 134.223 41.9336C133.694 43.2291 132.638 44.9763 132.168 46.0136C131.756 46.7904 131.58 47.6317 131.168 48.4085C130.229 50.4808 129.289 52.553 128.172 54.4316C127.76 55.0148 127.467 55.598 127.055 56.1143L125.997 57.3452C125.585 57.7348 125.117 57.9284 124.705 57.9284C124.647 57.6057 124.53 57.4098 124.53 57.2161C124.53 56.3748 124.471 55.598 124.53 54.8212C124.705 54.0444 124.588 53.203 124.764 52.4262V52.1012C124.705 51.9076 124.764 51.7117 124.764 51.518C124.764 50.9994 124.881 50.5476 124.939 50.029C124.998 49.3167 125.174 48.5399 125.115 47.8276C125.115 47.634 125.174 47.6986 125.174 47.5049C125.349 46.9218 125.466 46.3386 125.527 45.7577C125.703 44.7873 125.703 44.0082 125.88 43.1668C126.056 42.4546 126.115 41.8068 126.292 41.0946L126.409 40.0573L126.644 39.0869C126.819 38.1164 126.878 37.2728 127.172 36.4315C127.348 35.8483 127.407 35.2651 127.584 34.5528C127.76 33.8406 127.819 33.1928 127.996 32.4806C128.055 32.0265 128.231 31.5747 128.289 31.1206C128.348 30.6665 128.523 30.2147 128.523 29.7606C128.582 29.3065 128.699 28.9838 128.757 28.7233C128.933 28.4652 128.933 28.1402 128.992 27.882C128.992 27.8175 129.05 27.6238 129.109 27.3634C129.167 27.1052 129.167 26.7802 129.343 26.4575L129.46 25.6161C129.753 24.5789 130.048 23.5439 130.282 22.4421C130.34 21.988 130.399 21.7298 130.574 21.2757L130.692 20.8216L130.867 19.9803C130.926 19.5262 130.984 19.268 131.16 18.943C131.218 18.4244 131.336 17.9726 131.394 17.6476C131.57 17.1289 131.57 16.5457 131.747 16.0294C131.806 15.7712 131.747 15.5753 131.747 15.3171L131.043 14.5403C130.984 14.3467 130.867 14.2822 130.75 14.3467C130.457 14.5403 130.457 14.8654 130.28 15.1235L129.575 16.8062L128.987 18.5534C128.576 19.5239 128.341 20.4321 127.929 21.4025C127.637 22.4398 127.342 23.4747 126.93 24.4452C126.93 24.5097 126.871 24.5742 126.813 24.7679L126.342 26.711L125.989 27.6815C125.813 28.3937 125.577 29.106 125.401 29.8828C125.226 30.466 125.109 31.0491 124.931 31.5655L124.343 33.9604C124.285 34.4145 124.168 34.7372 124.109 35.0622C123.934 35.5163 123.817 35.9681 123.756 36.4868L123.285 38.6881C123.227 39.2713 123.051 39.7899 122.993 40.3708C122.938 41.0854 122.786 41.7446 122.623 42.3992C122.485 42.8603 122.332 43.1392 122.11 43.6716C121.698 44.9671 121.111 45.7439 120.584 46.9748C119.643 49.8238 116.942 48.722 116.942 45.7439V44.9671C117.117 44.2548 117.234 43.3489 117.295 42.5076C117.471 41.5372 117.295 40.8894 117.119 39.9167C116.944 39.4626 116.766 39.0754 116.707 38.6213C116.532 38.1672 116.473 37.8445 116.296 37.5194C116.12 37.0653 115.767 36.6781 115.238 36.3531C115.238 36.224 115.12 36.1595 114.826 36.1595C114.767 36.0949 114.591 36.1595 114.533 35.9658C114.357 35.7077 114.062 35.5117 113.711 35.3827C113.241 34.9286 112.653 34.9931 112.007 35.189C111.949 35.2536 111.831 35.3181 111.654 35.3181C111.361 35.5763 111.183 35.7077 110.773 36.1595L110.42 36.4822C110.362 36.8072 110.067 37.1299 109.774 37.388C109.774 37.7108 109.715 37.9067 109.598 38.0358C109.186 38.5544 108.894 39.1376 108.718 39.7185L108.189 41.0784C107.955 41.4403 107.832 41.7216 107.675 42.1803C107.587 42.2609 107.514 42.3416 107.484 42.4384C106.838 43.5402 105.663 45.8707 105.017 46.9725C104.488 47.9429 104.076 48.9156 103.549 49.8861C103.079 50.6629 102.786 51.4397 102.316 52.2165C101.316 53.9637 100.319 55.5842 99.2023 57.2023C98.5562 58.2396 97.8516 59.21 97.2055 60.1804C96.9713 60.5055 96.735 60.7636 96.4423 61.0218L96.2667 60.7636C96.3252 60.4409 96.3838 60.1159 96.3838 59.9223C96.3838 59.0809 96.5594 58.3041 96.6179 57.4605L96.7936 56.8128C96.7936 56.3587 96.7936 56.1005 96.9692 55.7778C97.0278 55.7132 97.0278 55.6487 97.0278 55.4528L97.2034 54.7405C97.379 54.2219 97.4376 53.7032 97.6153 53.1869C97.7909 52.7328 97.7909 52.2165 97.9687 51.6978C98.1443 51.2437 98.2614 50.792 98.322 50.2733C98.3806 49.9483 98.4977 49.6256 98.5562 49.432C98.5562 49.2383 98.5562 49.107 98.4977 49.0424C98.6733 48.7174 98.851 48.3947 98.9096 48.0051C98.9096 47.9406 98.9096 47.8761 98.9681 47.8115C99.2023 47.3574 99.2023 46.8411 99.38 46.3224C99.5557 45.8038 99.7334 45.352 99.7334 44.7688C99.7334 44.7043 99.792 44.6398 99.792 44.5752C100.085 43.863 100.204 43.2152 100.438 42.503C100.731 41.7907 100.791 40.9494 101.084 40.1726C101.26 39.7185 101.318 39.2667 101.496 38.8126V38.423C101.908 37.063 102.259 35.7676 102.437 34.2785C102.496 34.0204 102.554 33.8244 102.554 33.5017C102.613 33.1767 102.613 32.7895 102.613 32.4644C102.671 31.7522 102.613 31.169 102.201 30.6504C101.967 30.4567 101.73 30.1317 101.555 29.6799C101.496 29.4218 101.379 29.2904 101.201 29.2258C100.909 29.0322 100.731 28.7718 100.555 28.449H100.497C100.438 28.449 100.438 28.3845 100.38 28.3845H99.909C99.38 28.7095 99.0288 29.2258 98.6169 29.6799C97.9122 30.4567 97.2661 31.169 96.62 32.1394C96.62 32.204 96.5615 32.2685 96.4444 32.3976C96.1517 32.8517 95.9154 33.2389 95.5035 33.693L94.3284 35.4403C94.0357 36.0235 93.6823 36.5421 93.3896 37.0584C92.9191 37.8352 92.5093 38.612 92.0974 39.3888C91.8632 39.8429 91.6855 40.1011 91.3928 40.5552C91.3928 40.3616 91.3342 40.3616 91.3342 40.297C91.7461 39.7139 91.8047 39.0661 91.9803 38.3539C92.0388 37.8998 92.1559 37.5125 92.4508 37.2521C92.4508 36.927 92.4508 36.7334 92.5093 36.6689C92.7435 36.2148 92.8627 35.6339 93.0383 35.1798L93.5673 33.6262C93.6258 33.1721 93.9792 32.7849 93.9207 32.2662C93.9207 32.2017 93.9792 32.1371 93.9792 32.0726C94.0963 31.9435 94.1548 31.8144 94.1548 31.6185C94.1548 31.4226 94.2134 31.3603 94.2134 31.2958C94.5061 30.5835 94.8009 30.0649 94.8595 29.2881C94.918 29.0945 94.918 29.0299 95.0937 28.834C95.2693 28.6381 95.3279 28.4444 95.3279 28.1863C95.3279 27.9926 95.4449 28.0572 95.4449 27.8636C95.6206 27.5409 95.6206 27.3449 95.7983 27.0868C96.0325 26.1163 96.3859 25.3395 96.5615 24.3668C96.7371 23.7836 96.7371 23.2004 96.7957 22.6196C96.7957 22.1655 96.6786 21.9073 96.503 21.6491C96.2102 21.195 95.9739 20.9369 95.7398 20.4828C95.6812 20.3537 95.5641 20.2246 95.3864 20.0287L95.033 19.5746C94.9159 19.4455 94.7989 19.381 94.6797 19.381C94.504 19.4455 94.2678 19.5746 94.0921 19.7705L92.8585 21.4532C92.2124 22.1655 91.8005 22.8777 91.3321 23.59C91.0394 24.0441 90.8031 24.3022 90.5689 24.7563L89.8643 25.9872C89.8057 26.1809 89.6301 26.31 89.5716 26.5059C89.3959 27.2181 88.9255 27.5432 88.6913 28.2531C88.5156 28.7072 88.2794 29.159 87.9866 29.6131L87.5162 30.6504C87.1043 31.2336 86.9286 31.7522 86.6945 32.3331L85.5194 34.5989L84.9318 35.8944H84.8733V35.3112C85.166 34.6635 85.2852 34.1448 85.3437 33.693C85.5194 33.1099 85.5194 32.5267 85.6971 32.0749C85.9313 31.1045 86.0505 30.1963 86.2261 29.2258C86.4017 28.5136 86.2846 27.8659 86.4603 27.1536V26.635C86.4017 26.3768 86.2846 26.2454 86.4603 25.9872V25.7291C86.2846 25.2104 86.3432 24.6918 86.0484 24.1755L85.8142 23.5277C85.58 23.0737 85.2266 22.8155 85.051 22.3614C84.8754 21.9073 84.6391 21.5846 84.2293 21.3241C84.0536 21.1305 83.9365 21.0014 83.8174 20.9346C83.4055 20.3514 82.8765 20.0287 82.1718 20.0932C81.9962 20.1578 81.9376 20.0932 81.7599 20.0932C81.5257 20.1578 81.4065 20.2223 81.348 20.2223C80.6434 20.4159 80.0558 20.545 79.4097 20.9991C79.2341 21.1927 78.9978 21.3218 78.8222 21.3887C78.4103 21.6468 78.059 21.9073 77.7642 22.1655C77.53 22.6196 77.1766 22.8132 76.9424 23.1359C76.8839 23.2004 76.8253 23.265 76.8253 23.265C76.5912 23.7191 76.2963 23.9772 76.0036 24.4313C75.4746 25.1436 75.0648 25.7913 74.77 26.439C74.77 26.5681 74.77 26.6327 74.7114 26.6972C74.1824 27.2158 73.9482 27.9281 73.5363 28.6404C73.1244 29.2235 72.8902 29.8713 72.5954 30.4544L71.7737 32.5267C71.598 32.7849 71.5395 32.9808 71.5395 33.1099C71.481 33.368 71.3639 33.4994 71.3053 33.7576C71.1297 33.9512 71.1297 34.2117 71.0711 34.4053L70.8955 35.053C70.7199 35.5071 70.7199 35.7007 70.6613 35.9589C70.6613 36.1525 70.6028 36.2171 70.6028 36.413C70.6028 36.8671 70.4271 37.0607 70.3686 37.5148C70.3686 37.7085 70.31 37.9044 70.2515 38.1625C70.0759 38.8748 70.193 39.458 70.1344 40.1703C70.0759 40.6889 70.2515 41.2075 70.4271 41.6593C70.6028 42.178 70.8976 42.4361 71.3074 42.5007C71.6001 42.4361 71.8364 42.2425 72.0706 41.9175C72.1291 41.6593 72.1291 41.3988 72.3048 41.2052C72.4804 40.8802 72.539 40.622 72.5975 40.1679C72.7731 39.8429 72.7146 39.5202 72.8902 39.1975C73.0659 38.7434 73.183 38.4853 73.2436 38.0312C73.4192 37.773 73.597 37.5125 73.597 37.1898C73.6555 36.7357 73.9503 36.4776 73.9503 36.0235C74.0089 35.8298 74.1845 35.6339 74.2431 35.4403L74.7135 34.403L75.184 33.3657L75.5373 32.6535L76.9466 30.0626C77.1223 29.869 77.0637 29.7399 77.2393 29.5439C77.5321 28.9608 77.7683 28.5067 78.1803 27.9903C78.5922 27.149 79.0605 26.5013 79.5895 25.789C79.6481 25.6599 79.7066 25.5308 79.8823 25.3349C80.2942 25.0767 80.4113 24.6872 80.8211 24.429L81.2915 23.9749C81.9962 23.5208 82.7594 23.1981 83.464 22.9377H84.1101C84.1101 23.2604 84.1101 23.5208 84.0515 23.7145C83.993 23.9081 83.993 24.104 83.993 24.4267C83.993 24.9454 83.9345 25.3971 83.8174 25.8512C83.6417 26.8217 83.5832 27.6653 83.2884 28.5067V28.7003C83.2884 29.023 83.2298 29.2835 83.0542 29.6062C82.9956 29.8643 83.0542 30.1894 82.8785 30.4475C82.7029 31.0307 82.5252 31.6139 82.5252 32.0657C82.3495 32.3884 82.3495 32.5843 82.1718 32.8425C81.8791 33.8129 81.5843 34.9147 81.1724 35.8852C80.8796 36.662 80.5848 37.5033 80.4092 38.476L80.3506 38.5406L79.7631 39.9651C79.5874 40.2233 79.646 40.4837 79.4703 40.8064C79.2947 41.2605 79.2362 41.6478 78.9999 42.1019L78.4123 43.916C78.1782 44.3701 78.1782 44.9509 77.8833 45.405C77.8248 45.4696 77.7663 45.5987 77.7663 45.6632L77.2958 47.4773L76.6497 49.5495L76.5326 49.8077C76.357 50.3909 76.2399 50.9741 76.0036 51.5549C75.7109 52.3317 75.4161 53.044 75.2404 53.8208C75.2404 53.9499 75.1819 54.079 75.1233 54.1435C74.6529 55.2453 74.3601 56.3448 73.9482 57.4466C73.7726 57.7048 73.8897 57.9653 73.7141 58.2234C73.3021 59.4543 72.9509 60.4893 72.7146 61.7202C73.0073 62.497 73.1265 62.6906 73.7726 63.1447L74.2431 63.4029C74.2431 63.4675 74.3016 63.4675 74.3601 63.4675H74.4187C74.8306 63.2093 74.7721 62.8197 75.0062 62.5616C75.0648 62.497 75.0648 62.4325 75.0648 62.3679L75.5352 61.4621C75.5352 61.2684 75.6523 61.137 75.7109 60.8789L75.8865 60.4893C76.2984 59.648 76.5912 58.8066 77.0031 57.963C77.1787 57.4443 77.3564 56.9257 77.6492 56.3448C78.1196 55.3744 78.5294 54.2726 78.9999 53.3022C79.1755 52.9794 79.1755 52.6544 79.3533 52.3963L79.5289 52.0067L80.0579 51.0363C80.1164 50.7781 80.175 50.5176 80.3506 50.324C80.6434 49.6118 80.9382 49.2222 81.1724 48.5099L81.8184 47.0854C82.3474 45.8545 82.935 44.8841 83.464 43.6532C83.7567 43.07 84.0515 42.5514 84.2857 41.8391C84.9318 40.8018 85.3437 39.6378 85.9898 38.6005L87.7525 34.9101C87.9281 34.456 88.1644 34.1333 88.34 33.6792C88.8105 32.7088 89.3395 31.8651 89.8078 30.8947C89.8664 30.4406 90.042 30.1824 90.2197 29.9888C90.4539 29.6661 90.6317 29.2766 90.8073 28.9539C90.8073 29.0184 90.8658 28.9539 90.9829 28.8248V28.6311C90.9829 28.5666 91.0415 28.5021 91.1586 28.373C91.2171 28.6311 91.1586 28.7625 90.9829 28.8271C90.9829 29.0207 90.9244 29.3457 90.7487 29.6684C90.5146 30.1225 90.2197 30.5098 90.0441 31.222C90.0441 31.2651 90.0246 31.3081 89.9856 31.3511C89.8099 31.6093 89.8099 31.9343 89.6322 32.257C89.4566 32.5152 89.4566 32.9047 89.2203 33.1629L89.1032 33.421C89.0447 33.8751 88.869 34.3269 88.6913 34.6519C88.3986 35.1706 88.3379 35.7538 88.1623 36.2701L88.0452 36.5283C87.811 37.0469 87.7525 37.5655 87.5747 38.0819C87.5747 38.211 87.5162 38.34 87.4576 38.536C87.0457 39.5064 86.8116 40.35 86.5188 41.3205C86.4603 41.7746 86.4603 42.0327 86.2261 42.4868L86.1675 42.5514V42.6805C86.2261 43.1346 86.0505 43.4573 85.9919 43.9114C85.9919 44.105 86.0505 44.105 86.0505 44.3009C86.0505 44.4968 85.9919 44.5591 85.9919 44.755C85.9919 44.9509 85.9334 44.9486 85.9919 45.1446C86.0505 45.3382 86.0505 45.4696 85.9919 45.6632C85.9334 45.7277 85.9334 45.9214 85.9334 46.2464C85.9334 46.8595 85.8435 47.5072 85.8769 48.1158C85.9166 48.8396 86.2366 49.3352 86.5586 49.9713C86.7091 50.2664 86.8638 50.5684 87.1001 50.785C87.3364 51.0017 87.6772 51.11 87.9574 50.9694C88.0661 50.9141 88.1602 50.8242 88.2146 50.709C88.2585 50.6168 88.2773 50.5107 88.3003 50.4093C88.4968 49.5196 89.0426 48.828 89.4587 48.0628C89.9877 47.0923 90.4581 46.2487 90.985 45.4073C91.6897 44.1764 92.4528 42.9478 93.1575 41.6524C93.3331 41.3942 93.3917 41.1983 93.5694 40.8756C93.9813 40.4215 94.0984 39.9052 94.5082 39.3865C94.9201 38.8679 95.2129 38.3493 95.5077 37.8329C95.8004 37.3788 96.0367 36.927 96.4486 36.4729C96.9776 35.7607 97.3874 35.0484 98.0335 34.3362C98.504 33.8175 98.9138 33.2343 99.4428 32.6535L99.6184 32.5244L99.677 32.4598C99.677 32.5029 99.6574 32.5244 99.6184 32.5244C99.6184 32.718 99.6184 32.9139 99.5599 32.9785C99.3257 33.6907 99.2065 34.2094 98.9138 34.9216C98.7381 35.4403 98.621 36.0235 98.4433 36.6043C98.2091 37.1875 98.0314 37.8352 97.7387 38.4184C97.563 39.1307 97.4459 39.6493 97.2097 40.3616C97.034 40.8157 97.034 41.332 96.7392 41.7861C96.6807 41.8506 96.6807 41.9152 96.6807 42.0443L95.8589 44.6351C95.6833 45.0892 95.6248 45.2829 95.6833 45.737C95.5077 45.8015 95.4491 45.9306 95.4491 46.0597C95.4491 46.2533 95.4491 46.3824 95.3906 46.4492C95.0979 46.9033 95.0979 47.4197 94.9201 47.8737C94.7445 48.1965 94.8616 48.5215 94.6859 48.8442C94.4518 49.4274 94.3932 50.0105 94.2155 50.5914L93.5694 53.4405C93.3938 54.2818 93.3352 55.3836 93.3352 56.1604C93.2767 56.6145 93.3352 57.1309 93.4523 57.7786L93.5694 59.2031C93.745 59.9799 93.9813 60.6922 94.274 61.2753C94.5668 61.8585 94.9201 62.3772 95.3906 62.829C95.9196 63.3476 96.4486 63.6703 96.9776 63.8662C97.6237 63.6726 97.5651 63.8017 97.7408 63.6081C98.3283 63.0894 98.7988 62.5708 99.2086 61.9899C99.6205 61.2776 99.9718 60.8236 100.267 60.1113C100.679 59.3345 101.147 58.6222 101.617 57.8454C102.556 56.0982 103.439 54.5423 104.319 52.7305C104.789 51.7601 105.258 50.7873 105.67 49.8169L106.78 47.1868C106.723 48.3555 106.677 49.4158 106.847 50.5937L107.376 52.6014C107.788 53.7032 108.375 54.6737 109.197 55.5795C109.843 56.2918 110.431 56.6145 111.135 56.9395C111.664 57.1332 112.074 57.0041 112.427 56.6814C112.956 56.1627 113.427 55.515 113.837 54.7382C114.307 53.7678 114.717 52.8596 115.012 51.8892L115.833 49.3628C116.009 48.9087 116.126 48.586 116.304 48.261C116.343 48.261 116.362 48.2825 116.362 48.3255C116.597 48.5192 116.716 48.5837 116.716 48.5837C117.362 49.296 117.891 49.7501 118.771 50.2019C119.242 50.46 119.771 50.46 120.298 50.2664C120.298 50.3309 120.356 50.2019 120.473 50.0082C120.885 49.8146 121.002 49.5541 121.236 49.1023C121.412 48.8442 121.59 48.4546 121.824 48.1965C121.849 48.1457 121.874 48.0927 121.899 48.0397C121.868 48.291 121.857 48.5353 121.941 48.7796C121.765 49.2983 121.824 49.8815 121.765 50.4623C121.59 52.2096 121.707 53.3759 122 54.865C122.353 56.4831 123.175 57.9077 124.408 59.1386C124.82 59.4613 125.23 59.7217 125.642 59.9799C125.818 60.1735 126.112 60.1735 126.405 60.109C126.817 59.9154 127.051 59.784 127.168 59.5903C127.814 59.0717 128.285 58.4885 128.695 57.7117C128.87 57.2576 129.107 56.9995 129.341 56.5454C129.987 55.4436 130.516 54.344 130.926 53.3713C131.689 51.8177 132.335 50.1972 133.04 48.5791L133.569 47.3482C133.569 47.3482 133.575 47.3344 133.577 47.3275C133.567 48.4385 133.598 49.5587 133.744 50.6513C133.861 51.6218 134.156 52.659 134.566 53.694C135.271 54.9895 136.034 56.089 137.15 57.0617C138.267 57.903 139.969 57.774 141.322 57.8385C141.614 57.774 141.909 57.8385 142.143 57.6449C142.848 57.4513 143.377 56.9326 144.023 56.414C144.377 56.0913 144.728 55.6372 145.14 55.054C145.374 54.7958 145.552 54.5354 145.727 54.2772C146.198 53.5649 146.608 52.8527 147.019 52.1404C147.377 51.5157 147.689 50.8911 147.979 50.2503C148 50.7182 148.044 51.1861 148.136 51.6863C148.312 52.9172 148.782 53.9522 149.428 54.9249C150.308 56.0913 151.425 56.9326 152.659 57.4513C153.129 57.6449 153.597 57.6449 154.068 57.4513C154.538 57.2576 155.007 56.9326 155.477 56.414L156.711 54.7958C157.123 54.3417 157.474 53.7586 157.827 53.1777C158.356 52.4654 158.766 51.6241 159.237 50.8473L160.587 48.2057V52.9841C160.587 53.2422 160.646 53.4382 160.705 53.6963C160.763 54.2795 160.997 54.7981 161.409 55.2499L162.467 56.6099C162.879 57.1931 163.289 57.5158 163.759 57.7763C163.935 57.9054 164.113 57.9054 164.347 57.7763L164.876 57.064C165.288 56.0936 165.698 55.4459 166.11 54.4731C166.521 53.4359 166.99 52.4009 167.402 51.2991L168.811 46.9609C169.104 46.2487 169.281 45.4719 169.691 44.6951C169.691 45.0178 169.75 45.2137 169.691 45.4073C169.516 45.8614 169.574 46.1841 169.574 46.5092V49.9414C169.574 50.7182 169.633 51.4305 169.75 52.1427C169.984 53.6318 170.454 54.8627 171.159 55.9645C171.452 56.4186 171.747 56.7413 172.098 56.9349C172.274 56.9995 172.451 57.1285 172.685 57.3245C173.038 57.3245 173.293 57.2599 173.449 57.1309C173.861 56.8727 174.212 56.5477 174.565 56.0936C175.094 55.3813 175.504 54.6045 175.916 53.8277L176.621 52.145C176.997 51.2576 177.273 50.5315 177.543 49.6717C177.532 49.9322 177.528 50.1972 177.501 50.4623C177.325 52.2096 177.442 53.3759 177.735 54.865C178.088 56.4831 178.91 57.9077 180.144 59.1386C180.556 59.4613 180.965 59.7217 181.377 59.9799C181.553 60.1735 181.848 60.1735 182.141 60.109C182.552 59.9154 182.787 59.784 182.904 59.5903C183.55 59.0717 184.02 58.4885 184.43 57.7117C184.606 57.2576 184.842 56.9995 185.076 56.5454C185.722 55.4436 186.251 54.344 186.663 53.3713C187.426 51.8177 188.073 50.1972 188.777 48.5791L189.306 47.3482C189.306 47.3482 189.312 47.3344 189.315 47.3275C189.304 48.4385 189.335 49.5587 189.482 50.6513C189.599 51.6218 189.894 52.659 190.304 53.694C191.008 54.9895 191.771 56.089 192.888 57.0617C194.004 57.903 195.706 57.774 197.059 57.8385C197.352 57.774 197.647 57.8385 197.881 57.6449C198.586 57.4513 199.115 56.9326 199.761 56.414C200.114 56.0913 200.465 55.6372 200.877 55.054C201.111 54.7958 201.289 54.5354 201.465 54.2772C201.935 53.5649 202.345 52.8527 202.757 52.1404C203.462 50.9095 203.991 49.6809 204.52 48.3186C204.99 47.0877 205.224 45.7923 205.636 44.5637C205.812 44.1096 205.753 43.916 205.929 43.4619C205.987 43.1392 205.987 42.8141 205.929 42.6205L205.956 42.662ZM193.151 42.8556C193.327 42.337 193.505 41.7538 193.797 41.2375C193.856 41.1729 193.973 41.0439 194.032 40.8479C194.09 40.7189 194.207 40.5898 194.266 40.3938C194.678 39.9397 194.912 39.5525 195.324 39.0984C195.736 38.5152 196.382 38.128 197.262 37.9966C197.321 38.1902 197.379 38.1257 197.438 38.3193C197.85 39.6793 198.084 40.9747 197.672 42.4638C197.555 43.1115 197.26 43.6947 196.85 44.2779C196.616 44.536 196.38 44.732 196.204 44.9901C195.792 45.3151 195.382 45.4442 195.029 45.4442C194.5 45.5088 193.912 45.5088 193.383 45.3151C193.149 45.2506 192.854 45.1215 192.796 44.861C192.796 44.1488 192.913 43.5011 193.149 42.8533L193.151 42.8556ZM137.408 42.8556C137.583 42.337 137.761 41.7538 138.054 41.2375C138.112 41.1729 138.229 41.0439 138.288 40.8479C138.346 40.7189 138.463 40.5898 138.522 40.3938C138.934 39.9397 139.168 39.5525 139.58 39.0984C139.992 38.5152 140.638 38.128 141.518 37.9966C141.577 38.1902 141.635 38.1257 141.694 38.3193C142.106 39.6793 142.34 40.9747 141.928 42.4638C141.811 43.1115 141.516 43.6947 141.106 44.2779C140.872 44.536 140.636 44.732 140.46 44.9901C140.048 45.3151 139.639 45.4442 139.285 45.4442C138.756 45.5088 138.169 45.5088 137.64 45.3151C137.405 45.2506 137.111 45.1215 137.052 44.861C137.052 44.1488 137.169 43.5011 137.405 42.8533L137.408 42.8556ZM91.5893 27.7022C91.6478 27.8958 91.5893 27.9604 91.4137 27.8958L91.5893 27.7022ZM115.733 41.4311C114.207 41.7538 113.5 45.8983 114.734 47.0647C114.441 48.6183 114.441 48.4892 113.793 50.0428C113.381 50.8196 113.147 51.661 112.735 52.3732L112.501 52.9564C112.208 53.2791 112.089 53.6687 111.913 53.9268C111.501 54.3809 111.15 54.8327 110.738 55.0286C110.445 55.2223 110.267 55.2868 110.15 55.2868L109.858 54.4455C109.682 54.1204 109.565 53.6041 109.565 53.15C109.506 52.4378 109.565 51.9191 109.506 51.3359C109.448 51.2714 109.506 51.0778 109.565 50.8818C109.389 50.4278 109.448 49.8446 109.506 49.3282V48.4869C109.682 47.9037 109.682 47.4496 109.741 46.9333C109.78 46.9333 109.799 46.9118 109.799 46.8687C109.799 46.1565 110.092 45.4442 110.27 44.732C110.387 43.9552 110.562 43.3074 110.857 42.7888C111.15 42.2056 111.386 41.6224 111.562 40.9102C111.737 40.5875 111.854 40.1979 112.091 39.8729C112.266 39.5502 112.266 39.2252 112.561 38.967L113.09 38.0611C113.266 37.8675 113.324 37.6716 113.502 37.4134C113.795 37.2198 113.973 37.0239 114.502 36.8302C114.677 37.0239 114.855 36.9593 115.089 37.1529C115.382 37.607 115.442 37.9297 115.382 38.1902C115.557 38.9025 115.557 39.4211 115.735 39.9374C115.794 40.4561 115.735 40.9747 115.735 41.4265L115.733 41.4311Z" fill="#231300"/>
<path d="M84.7164 36.2493V36.1871L84.7731 36.2493H84.7164Z" fill="#231300"/>
<path d="M102.979 66.759H102.002L100.014 69.7717H99.1626V66.759H98.368V74.2436H99.1626V70.6039H100.058L102.251 74.2436H103.209L100.731 70.1382L102.979 66.759Z" fill="#231300"/>
<path d="M108.057 66.676C106.196 66.676 104.791 68.3126 104.791 70.4909C104.791 72.6692 106.165 74.3104 108.057 74.3104C109.95 74.3104 111.323 72.7084 111.323 70.4909C111.323 68.2734 109.918 66.676 108.057 66.676ZM108.057 73.4852C106.648 73.4852 105.624 72.245 105.624 70.4909C105.624 68.7367 106.669 67.5105 108.057 67.5105C109.446 67.5105 110.491 68.7713 110.491 70.4909C110.491 72.2105 109.467 73.4852 108.057 73.4852Z" fill="#231300"/>
<path d="M117.078 67.6027V66.5815H116.306V67.6027C115.114 67.6027 113.266 68.1951 113.266 70.3572C113.266 71.8855 114.382 73.1556 116.306 73.1556V74.3288H117.078V73.1556C119.001 73.1556 120.118 71.8855 120.118 70.3572C120.118 68.1928 118.269 67.6027 117.078 67.6027ZM116.306 72.328C115.114 72.328 114.077 71.6342 114.077 70.3595C114.077 69.0848 114.924 68.444 116.306 68.444V72.328ZM117.078 72.328V68.444C118.464 68.444 119.311 69.1286 119.311 70.3595C119.311 71.5904 118.269 72.328 117.078 72.328Z" fill="#231300"/>
<path d="M123.137 70.6085H125.504V69.7833H123.137V67.5935H125.782V66.759H122.345V74.2436H125.88V73.4183H123.137V70.6085Z" fill="#231300"/>
<path d="M135.003 73.4851C133.589 73.4851 132.565 72.2496 132.565 70.4909C132.565 68.7321 133.615 67.5104 134.999 67.5104C135.588 67.5104 136.019 67.7409 136.452 68.1789L137.125 67.681C136.54 67.031 135.85 66.6737 134.999 66.6737C133.138 66.6737 131.737 68.3149 131.737 70.4886C131.737 72.6622 133.111 74.308 135.003 74.308C135.946 74.308 136.812 73.9116 137.391 73.1993L136.774 72.6277C136.287 73.2085 135.689 73.4828 135.001 73.4828L135.003 73.4851Z" fill="#231300"/>
<path d="M146.376 73.4851C144.962 73.4851 143.938 72.2496 143.938 70.4909C143.938 68.7321 144.987 67.5104 146.371 67.5104C146.961 67.5104 147.392 67.7409 147.825 68.1789L148.498 67.681C147.912 67.031 147.222 66.6737 146.371 66.6737C144.51 66.6737 143.109 68.3149 143.109 70.4886C143.109 72.6622 144.483 74.308 146.376 74.308C147.319 74.308 148.184 73.9116 148.763 73.1993L148.147 72.6277C147.659 73.2085 147.061 73.4828 146.373 73.4828L146.376 73.4851Z" fill="#231300"/>
<path d="M153.83 66.676C151.969 66.676 150.564 68.3126 150.564 70.4909C150.564 72.6692 151.937 74.3104 153.83 74.3104C155.722 74.3104 157.096 72.7084 157.096 70.4909C157.096 68.2734 155.691 66.676 153.83 66.676ZM153.83 73.4852C152.42 73.4852 151.396 72.245 151.396 70.4909C151.396 68.7367 152.441 67.5105 153.83 67.5105C155.218 67.5105 156.263 68.7713 156.263 70.4909C156.263 72.2105 155.239 73.4852 153.83 73.4852Z" fill="#231300"/>
<path d="M161.206 69.7787H160.113V67.5889H162.864V66.759H159.318V74.2436H161.42C162.777 74.2436 163.481 73.4414 163.481 71.9708C163.481 70.6569 162.591 69.7764 161.208 69.7764L161.206 69.7787ZM161.06 73.4183H160.111V70.6039H161.24C162.162 70.6039 162.662 71.0787 162.662 71.9708C162.662 72.8628 162.409 73.416 161.058 73.416L161.06 73.4183Z" fill="#231300"/>
<path d="M168.675 66.676C166.814 66.676 165.409 68.3126 165.409 70.4909C165.409 72.6692 166.783 74.3104 168.675 74.3104C170.567 74.3104 171.941 72.7084 171.941 70.4909C171.941 68.2734 170.536 66.676 168.675 66.676ZM168.675 73.4852C167.266 73.4852 166.241 72.245 166.241 70.4909C166.241 68.7367 167.287 67.5105 168.675 67.5105C170.063 67.5105 171.109 68.7713 171.109 70.4909C171.109 72.2105 170.084 73.4852 168.675 73.4852Z" fill="#231300"/>
<path d="M176.71 65.943C177.344 65.943 178.097 65.5512 178.35 64.6868L177.658 64.4908C177.499 64.9449 177.162 65.1893 176.708 65.1893C176.255 65.1893 175.964 64.9542 175.774 64.4908L175.069 64.6868C175.326 65.5512 176.098 65.943 176.708 65.943H176.71Z" fill="#231300"/>
<path d="M174.952 72.1759V66.759H174.157V74.5017L178.471 68.8358V74.2435H179.263V66.4939L174.952 72.1759Z" fill="#231300"/>
<path d="M59.1239 42.6605L61.3467 24.3368L46.636 16.5604C46.6341 16.539 46.6302 16.5176 46.6264 16.4984L43.4152 3.12039C43.3571 2.87684 43.1304 2.73157 42.9114 2.79566C42.6905 2.85975 42.5587 3.10971 42.6168 3.35112L45.8279 16.7291C45.8318 16.7484 45.8396 16.7655 45.8454 16.7825L34.995 29.3359L20.858 28.8958L14.926 16.7911C14.8175 16.5689 14.5675 16.4877 14.366 16.6074C14.1644 16.727 14.0908 17.0026 14.1993 17.2248L19.9045 28.8659L18.7922 28.8317L18.1585 29.9661L12.43 18.278C12.3215 18.0558 12.0715 17.9746 11.8699 18.0943C11.6684 18.2139 11.5948 18.4895 11.7033 18.7117L17.6585 30.8634L10.3874 43.8825L-2.12371 42.8827C-2.35045 42.8635 -2.54812 43.0536 -2.56556 43.3036C-2.583 43.5535 -2.41052 43.7714 -2.18379 43.7907L10.2324 44.7841L16.9434 58.4762L10.8487 70.5574C10.7382 70.7774 10.8099 71.0552 11.0095 71.1769C11.1374 71.256 11.2866 71.2517 11.4068 71.1791C11.4727 71.1385 11.5308 71.0787 11.5715 70.9996L17.4104 59.4268L17.9821 60.5954L19.1022 60.6296L13.3272 72.0763C13.2168 72.2964 13.2885 72.5741 13.4881 72.6959C13.616 72.7749 13.7652 72.7707 13.8854 72.698C13.9513 72.6574 14.0094 72.5976 14.0501 72.5186L20.0344 60.6574L34.1385 61.0953L39.9638 72.9779C40.0723 73.2001 40.3223 73.2813 40.5239 73.1616C40.7254 73.042 40.7991 72.7664 40.6905 72.5442L34.8652 60.6617L43.1129 45.8929L59.1278 42.6584L59.1239 42.6605ZM58.3856 41.885L43.0839 44.9764L35.6791 29.8679L46.4112 17.4512L60.4495 24.8709L58.3856 41.8829V41.885ZM11.025 44.4871L19.2476 29.7611L34.9136 30.2482L42.3765 45.4741L34.1598 60.1874L18.4801 59.7003L11.0231 44.4871H11.025Z" fill="#231300"/>
<path d="M37.6907 29.2099C37.4891 29.3296 37.4155 29.6052 37.524 29.8274L43.4909 42.0026C43.5994 42.2248 43.8494 42.306 44.0509 42.1863C44.2524 42.0667 44.3261 41.7911 44.2176 41.5689L38.2507 29.3937C38.1422 29.1715 37.8922 29.0903 37.6907 29.2099Z" fill="#231300"/>
<path d="M57.2229 35.7899C57.312 35.8027 57.3992 35.7835 57.4729 35.7386C57.5853 35.6724 57.6686 35.5485 57.686 35.3989L58.8779 25.578C58.9089 25.328 58.75 25.0994 58.5232 25.0674C58.2984 25.0332 58.0891 25.2084 58.0601 25.4583L56.8682 35.2793C56.8372 35.5292 56.9961 35.7578 57.2229 35.7899Z" fill="#231300"/>
</g>
<defs>
<clipPath id="clip0_26_133">
<rect width="212" height="76" fill="white" transform="translate(-6)"/>
</clipPath>
</defs>
</svg>
