<svg width="206" height="76" fill="none" xmlns="http://www.w3.org/2000/svg"><g clip-path="url(#clip0_26_133)" fill="#231300"><path d="M205.956 42.662c-.234-.258-.47-.648-.88-.712a43.196 43.196 0 01-1.292 3.367l-.881 2.073c-.412 1.037-.821 2.007-1.35 2.978-.471.97-1.058 1.943-1.763 2.978-.47.712-.939 1.295-1.585 1.879-.646.518-1.351.905-2.114.97-.941.13-1.704-.13-2.291-.777-.412-.454-.588-.906-.822-1.424-.471-1.296-.529-2.591-.588-3.951-.058-1.231.117-2.462.117-3.755l.117-.194c.176-.064.235.13.412.194.529.454 1.058.841 1.704 1.166.529.323 1.117.454 1.763.454.293 0 .588-.064.822-.193.529-.259.88-.713 1.292-1.167.293-.325.47-.776.588-1.295.292-.841.47-1.618.47-2.46-.059-.454-.117-.712-.117-1.037 0-.712-.176-1.23-.353-1.943a4.017 4.017 0 00-.941-1.747l-.354-.454c-.175-.194-.234-.39-.412-.584-.292-.258-.587-.518-.88-.712-.763-.583-1.526-.648-2.409-.258a4.67 4.67 0 00-1.292.906c-.412.325-.587.712-.88 1.166a10.69 10.69 0 00-1.117 2.008c-.125.369-.581 1.2-.895 1.835l-.043-.023c-.529 1.295-1.585 3.042-2.056 4.08-.412.776-.587 1.618-.999 2.395-.939 2.072-1.88 4.144-2.997 6.023-.412.583-.704 1.166-1.116 1.682l-1.058 1.231c-.412.39-.88.584-1.292.584-.059-.323-.176-.52-.176-.713 0-.841-.059-1.618 0-2.395.176-.777.059-1.618.234-2.395v-.325c-.058-.193 0-.39 0-.583 0-.518.117-.97.176-1.489.058-.712.234-1.489.175-2.201 0-.194.059-.13.059-.323a9.373 9.373 0 00.353-1.747c.176-.97.176-1.75.354-2.591.175-.712.234-1.36.412-2.072l.117-1.038.234-.97c.176-.97.234-1.814.529-2.655.176-.584.234-1.167.412-1.879.175-.712.234-1.36.412-2.072.058-.454.234-.906.292-1.36.059-.454.235-.906.235-1.36.058-.454.175-.777.234-1.038.175-.258.176-.583.234-.84 0-.065.059-.259.117-.52.059-.258.059-.583.234-.905l.117-.842c.293-1.037.588-2.072.822-3.174.059-.454.117-.712.293-1.166l.117-.454.176-.842c.058-.454.117-.712.292-1.037.059-.518.176-.97.235-1.295.175-.519.175-1.102.353-1.619.058-.258 0-.454 0-.712l-.705-.777c-.058-.193-.175-.258-.292-.193-.293.194-.293.519-.471.777l-.705 1.682-.587 1.748c-.412.97-.646 1.878-1.058 2.849-.293 1.037-.588 2.072-1 3.042 0 .065-.058.13-.117.323l-.47 1.943-.354.97c-.175.713-.411 1.425-.587 2.202-.176.583-.293 1.166-.471 1.683l-.587 2.395c-.059.454-.176.776-.234 1.101a5.67 5.67 0 00-.354 1.425l-.47 2.201c-.059.583-.234 1.102-.293 1.683-.058.777-.234 1.489-.412 2.201v.014c-.234.503-.46.906-.646 1.475-.412 1.038-.646 2.137-1.058 3.108-.412 1.23-.763 2.461-1.233 3.69-.471 1.035-.822 2.137-1.468 3.107-.293.454-.646.906-.939 1.231a1.52 1.52 0 01-.822.454.515.515 0 01-.117-.258 4.278 4.278 0 01-.234-1.425c0-1.23-.117-2.461.058-3.69l.176-2.784c.176-.97.117-1.748.293-2.72l.117-.648c0-.519.058-1.102.117-1.618.059-.454.117-.712.117-1.167 0-.712.059-1.295.234-1.814a4.52 4.52 0 00.354-1.166c.058-.454.292-.712.117-1.166l-.412-.584c-.293-.518-.646-.712-1.058-1.166-.176-.064-.293-.13-.412-.13l-.412.713c-.176.713-.412 1.231-.588 1.943l-1.409 4.08-.47 1.167-1.351 3.755c-.646 1.747-1.175 3.496-2.055 5.114-.471.971-1 1.944-1.527 2.914-.058.194-.175.258-.292.194 0-.194-.059-.454-.059-.648 0-.454 0-.97.059-1.425 0-.583.058-1.101.058-1.618 0-.516.176-1.035.234-1.553l.471-2.33.47-2.138c.176-.583.176-1.23.354-1.747.175-.712.234-1.23.411-1.814.235-1.037.529-2.072.705-3.042.176-.713.353-1.296.176-2.008-.412-.583-.529-1.231-1.175-1.683l-.822.194-.353.518-.705 1.683c-.533 1.443-.945 2.886-1.305 4.364l-.692 1.463-2.233 4.338c-.646 1.038-1.058 2.073-1.704 3.043-.646.841-1.117 1.683-1.763 2.46-.293.454-.587.776-.999 1.23-.412.52-.941.97-1.587 1.36-.412.259-.822.259-1.234.259a1.515 1.515 0 01-.587-.39 4.551 4.551 0 01-.529-1.36c-.059-.583-.176-1.23-.176-1.814v-.519c-.059-.454-.117-.776-.059-.97 0-.325.059-.648 0-.97 0-.455.059-.648.117-1.102v-.777c.293-1.554.647-3.107 1.176-4.599.292-.776.587-1.553.999-2.33 0-.065.059-.13.117-.323.234-.325.471-.648.646-.97a8.75 8.75 0 011.646-2.008c.175-.129.353-.194.412-.129.412.583.234 1.166.234 1.879.176.258.353.39.587.39.647-.455.822-1.038.647-1.88-.118-.325-.293-.583-.588-.776-.117-.065-.293-.258-.529-.519-.176-.194-.293-.323-.412-.39l-.941-.647c-.88-.065-1.585.193-2.172.777-.705.776-1.351 1.489-1.763 2.461-.059.194-.176.323-.234.39a5.646 5.646 0 00-.705 1.489c-.293.777-.587 1.554-.822 2.33-.018.067-.035.134-.054.199-.226.588-.46 1.157-.709 1.742l-.88 2.073c-.412 1.037-.822 2.007-1.351 2.978-.47.97-1.058 1.943-1.762 2.978-.471.712-.939 1.295-1.585 1.878-.646.52-1.351.906-2.114.97-.941.13-1.704-.128-2.292-.776-.412-.454-.587-.906-.822-1.425-.47-1.295-.529-2.59-.587-3.95-.059-1.231.117-2.462.117-3.755l.117-.194c.176-.064.234.13.412.194.529.454 1.058.841 1.704 1.166.529.323 1.117.454 1.763.454.292 0 .587-.064.821-.193.529-.259.881-.713 1.293-1.167.292-.325.47-.777.587-1.295.293-.842.471-1.618.471-2.46-.059-.454-.117-.712-.117-1.037 0-.712-.176-1.23-.354-1.943a4.007 4.007 0 00-.941-1.747l-.353-.454c-.176-.194-.234-.39-.412-.584-.293-.258-.588-.518-.88-.712-.763-.583-1.527-.648-2.409-.258a4.653 4.653 0 00-1.292.906c-.412.325-.588.712-.88 1.166a10.694 10.694 0 00-1.117 2.008c-.125.369-.581 1.2-.895 1.835-.015-.007-.029-.017-.046-.023-.529 1.295-1.585 3.042-2.055 4.08-.412.776-.588 1.618-1 2.394-.939 2.073-1.879 4.145-2.996 6.024-.412.583-.705 1.166-1.117 1.682l-1.058 1.231c-.412.39-.88.583-1.292.583-.058-.322-.175-.518-.175-.712 0-.841-.059-1.618 0-2.395.175-.777.058-1.618.234-2.395v-.325c-.059-.193 0-.39 0-.583 0-.519.117-.97.175-1.489.059-.712.235-1.49.176-2.201 0-.194.059-.13.059-.323a9.535 9.535 0 00.353-1.747c.176-.97.176-1.75.353-2.591.176-.712.235-1.36.412-2.072l.117-1.038.235-.97c.175-.97.234-1.814.528-2.656.176-.583.235-1.166.412-1.878.176-.712.235-1.36.412-2.072.059-.455.235-.906.293-1.36.059-.454.234-.906.234-1.36.059-.454.176-.777.234-1.038.176-.258.176-.583.235-.841 0-.065.058-.258.117-.519.058-.258.058-.583.234-.905l.117-.842c.293-1.037.588-2.072.822-3.174.058-.454.117-.712.292-1.166l.118-.454.175-.842c.059-.454.117-.712.293-1.037.058-.519.176-.97.234-1.295.176-.52.176-1.102.353-1.619.059-.258 0-.454 0-.712l-.704-.777c-.059-.193-.176-.258-.293-.193-.293.193-.293.518-.47.777l-.705 1.682-.588 1.747c-.411.97-.646 1.88-1.058 2.85-.292 1.037-.587 2.072-.999 3.042 0 .065-.059.13-.117.323l-.471 1.943-.353.97c-.176.713-.412 1.425-.588 2.202-.175.583-.292 1.166-.47 1.683l-.588 2.394c-.058.454-.175.777-.234 1.102a5.712 5.712 0 00-.353 1.425l-.471 2.201c-.058.583-.234 1.102-.292 1.683-.055.714-.207 1.374-.37 2.028-.138.461-.291.74-.513 1.273-.412 1.295-.999 2.072-1.526 3.303-.941 2.849-3.642 1.747-3.642-1.231v-.777c.175-.712.292-1.618.353-2.46.176-.97 0-1.618-.176-2.59-.175-.454-.353-.842-.412-1.296-.175-.454-.234-.777-.411-1.102-.176-.454-.529-.84-1.058-1.166 0-.129-.118-.194-.412-.194-.059-.064-.235 0-.293-.193-.176-.258-.471-.454-.822-.583-.47-.454-1.058-.39-1.704-.194-.058.065-.176.13-.353.13-.293.257-.471.389-.881.84l-.353.323c-.058.325-.353.648-.646.906 0 .323-.059.519-.176.648a5.093 5.093 0 00-.88 1.682l-.529 1.36c-.234.362-.357.644-.514 1.102a.62.62 0 00-.191.258c-.646 1.102-1.821 3.433-2.467 4.534-.529.97-.941 1.944-1.468 2.914-.47.777-.763 1.554-1.233 2.33a68.846 68.846 0 01-3.114 4.986c-.646 1.038-1.35 2.008-1.996 2.978a4.914 4.914 0 01-.764.842l-.175-.258c.058-.323.117-.648.117-.842 0-.841.175-1.618.234-2.461l.176-.648c0-.454 0-.713.175-1.035.059-.065.059-.13.059-.325l.175-.713c.176-.518.235-1.037.412-1.553.176-.454.176-.97.354-1.49.175-.453.292-.905.353-1.424.059-.325.176-.647.234-.841 0-.194 0-.325-.058-.39.175-.325.353-.647.412-1.037 0-.064 0-.129.058-.194.234-.454.234-.97.412-1.489.176-.518.353-.97.353-1.553 0-.065.059-.13.059-.194.293-.712.412-1.36.646-2.072.293-.712.353-1.554.646-2.33.176-.455.234-.906.412-1.36v-.39c.412-1.36.763-2.655.941-4.145.059-.258.117-.454.117-.776.059-.325.059-.713.059-1.038.058-.712 0-1.295-.412-1.814-.234-.193-.471-.518-.646-.97-.059-.258-.176-.39-.354-.454-.292-.194-.47-.454-.646-.777h-.058c-.059 0-.059-.065-.117-.065h-.471c-.529.325-.88.842-1.292 1.296-.705.777-1.35 1.489-1.997 2.46 0 .064-.059.129-.176.258-.292.454-.529.84-.94 1.295l-1.176 1.747c-.292.584-.646 1.102-.938 1.618-.47.777-.88 1.554-1.293 2.33-.234.455-.411.713-.704 1.167 0-.193-.059-.193-.059-.258.412-.583.47-1.23.646-1.943.059-.454.176-.841.47-1.102 0-.325 0-.519.06-.583.233-.454.353-1.035.528-1.49l.53-1.553c.058-.454.411-.841.353-1.36 0-.064.058-.129.058-.193a.617.617 0 00.176-.454c0-.196.058-.259.058-.323.293-.712.588-1.231.647-2.008.058-.194.058-.258.234-.454.175-.196.234-.39.234-.648 0-.193.117-.129.117-.322.176-.323.176-.52.353-.777.234-.97.588-1.747.763-2.72.176-.583.176-1.167.235-1.747 0-.454-.117-.713-.293-.97-.293-.455-.53-.713-.763-1.167-.059-.13-.176-.258-.354-.454l-.353-.454c-.117-.13-.234-.194-.353-.194a1.524 1.524 0 00-.588.39l-1.233 1.682c-.647.713-1.058 1.425-1.527 2.137-.293.454-.529.712-.763 1.166l-.705 1.231c-.058.194-.234.323-.292.519-.176.712-.647 1.037-.88 1.747a7.536 7.536 0 01-.705 1.36l-.47 1.037c-.413.584-.588 1.102-.822 1.683L85.519 34.6l-.587 1.295h-.059v-.583a5.523 5.523 0 00.47-1.618c.176-.583.176-1.166.354-1.618.234-.97.353-1.879.53-2.85.175-.711.058-1.36.233-2.071v-.519c-.058-.258-.175-.39 0-.648v-.258c-.175-.519-.117-1.037-.412-1.553l-.234-.648c-.234-.454-.587-.712-.763-1.167-.176-.454-.412-.776-.822-1.037-.175-.194-.293-.323-.412-.39-.411-.583-.94-.905-1.645-.84-.176.064-.234 0-.412 0-.234.064-.354.128-.412.128-.705.194-1.292.323-1.938.777a1.58 1.58 0 01-.588.39 8.266 8.266 0 00-1.058.777c-.234.454-.587.647-.822.97l-.117.129c-.234.454-.529.712-.821 1.166-.53.713-.94 1.36-1.234 2.008 0 .13 0 .194-.059.258-.529.519-.763 1.231-1.175 1.943-.412.584-.646 1.231-.94 1.814l-.822 2.073c-.176.258-.234.454-.234.583-.059.258-.176.39-.235.648-.175.193-.175.454-.234.647l-.175.648c-.176.454-.176.648-.235.906 0 .194-.058.258-.058.454 0 .454-.176.648-.234 1.102 0 .194-.059.39-.118.648-.175.712-.058 1.295-.117 2.007-.058.519.117 1.038.293 1.49.176.518.47.776.88.84.293-.064.53-.258.764-.583.058-.258.058-.518.234-.712.175-.325.234-.583.292-1.037.176-.325.118-.648.293-.97.176-.455.293-.713.354-1.167.175-.258.353-.518.353-.841.059-.454.353-.712.353-1.166.059-.194.234-.39.293-.584l.47-1.037.471-1.037.353-.712 1.41-2.591c.175-.194.117-.323.292-.52.293-.582.53-1.036.941-1.553.412-.841.88-1.489 1.41-2.201a1.52 1.52 0 01.292-.454c.412-.258.53-.648.94-.906l.47-.454c.704-.454 1.467-.777 2.172-1.037h.646c0 .322 0 .583-.058.777-.059.193-.059.389-.059.712 0 .518-.058.97-.176 1.424-.175.97-.234 1.814-.529 2.656v.193c0 .323-.058.584-.234.906-.058.258 0 .583-.175.841-.176.584-.354 1.167-.354 1.619-.175.322-.175.518-.353.776-.293.97-.588 2.073-1 3.043-.292.777-.587 1.618-.763 2.591l-.058.065-.588 1.424c-.176.258-.117.519-.293.841-.175.455-.234.842-.47 1.296l-.588 1.814c-.234.454-.234 1.035-.529 1.489a.511.511 0 00-.117.258l-.47 1.814-.646 2.073-.117.258c-.176.583-.293 1.166-.53 1.747-.292.777-.587 1.489-.763 2.266a.52.52 0 01-.117.323c-.47 1.101-.763 2.2-1.175 3.303-.175.258-.058.518-.234.776-.412 1.231-.763 2.266-1 3.497.293.777.412.97 1.059 1.425l.47.258c0 .065.059.065.117.065h.059c.412-.259.353-.648.587-.906.059-.065.059-.13.059-.194l.47-.906c0-.194.117-.325.176-.583l.175-.39c.412-.841.705-1.682 1.117-2.526.176-.519.353-1.037.646-1.618.47-.97.88-2.072 1.35-3.043.177-.323.177-.648.354-.906l.176-.39.529-.97c.058-.258.117-.518.293-.712.292-.712.587-1.102.821-1.814l.646-1.425c.53-1.23 1.117-2.2 1.646-3.432.293-.583.588-1.102.822-1.814.646-1.037 1.058-2.201 1.704-3.239l1.763-3.69c.175-.454.411-.777.587-1.23.47-.971 1-1.815 1.468-2.785.058-.454.234-.713.412-.906.234-.323.412-.712.587-1.035 0 .064.059 0 .176-.13v-.193c0-.064.058-.129.176-.258.058.258 0 .39-.176.454 0 .194-.059.519-.234.841-.234.454-.53.842-.705 1.554 0 .043-.02.086-.058.13-.176.257-.176.582-.354.905-.175.258-.175.648-.412.906l-.117.258a3.667 3.667 0 01-.412 1.23c-.292.52-.353 1.103-.529 1.62l-.117.257c-.234.519-.293 1.038-.47 1.554 0 .129-.059.258-.117.454-.412.97-.646 1.814-.94 2.785-.058.454-.058.712-.292 1.166l-.058.064v.13c.058.454-.118.776-.176 1.23 0 .194.058.194.058.39s-.058.258-.058.454-.059.194 0 .39a.787.787 0 010 .518c-.059.065-.059.258-.059.583 0 .613-.09 1.261-.056 1.87.04.724.36 1.22.682 1.855.15.295.305.597.541.814.236.217.577.325.857.184a.568.568 0 00.258-.26c.043-.092.062-.198.085-.3.197-.89.743-1.581 1.159-2.346.529-.97 1-1.814 1.526-2.656.705-1.23 1.468-2.46 2.172-3.755.176-.258.235-.454.412-.776.412-.454.53-.97.94-1.49.411-.518.704-1.037.999-1.553.292-.454.529-.906.94-1.36.53-.712.94-1.425 1.586-2.137.47-.518.88-1.102 1.409-1.682l.175-.13.059-.064c0 .043-.02.064-.059.064 0 .194 0 .39-.058.454-.234.713-.353 1.231-.646 1.944-.176.518-.293 1.102-.47 1.682-.235.584-.413 1.231-.705 1.814-.176.713-.293 1.231-.53 1.944-.175.454-.175.97-.47 1.424-.058.065-.058.13-.058.258l-.822 2.591c-.176.454-.234.648-.176 1.102-.175.064-.234.194-.234.323 0 .193 0 .322-.058.39-.293.453-.293.97-.47 1.424-.177.322-.06.648-.235.97-.234.583-.293 1.166-.47 1.747l-.647 2.85c-.175.84-.234 1.943-.234 2.72-.058.453 0 .97.117 1.618l.117 1.424c.176.777.412 1.49.705 2.072.293.584.646 1.102 1.117 1.554.529.519 1.058.841 1.587 1.037.646-.193.587-.064.763-.258a9.202 9.202 0 001.468-1.618c.412-.712.763-1.166 1.058-1.879.412-.776.88-1.489 1.35-2.266.939-1.747 1.822-3.303 2.702-5.114.47-.97.939-1.944 1.351-2.914l1.11-2.63c-.057 1.169-.103 2.229.067 3.407l.529 2.007a9.07 9.07 0 001.821 2.979c.646.712 1.234 1.035 1.938 1.36.529.193.939.064 1.292-.259.529-.518 1-1.166 1.41-1.943.47-.97.88-1.878 1.175-2.849l.821-2.526c.176-.454.293-.777.471-1.102.039 0 .058.021.058.064.235.194.354.259.354.259.646.712 1.175 1.166 2.055 1.618.471.258 1 .258 1.527.064 0 .065.058-.064.175-.258.412-.193.529-.454.763-.906.176-.258.354-.647.588-.905l.075-.157c-.031.251-.042.495.042.74-.176.518-.117 1.102-.176 1.682-.175 1.748-.058 2.914.235 4.403.353 1.618 1.175 3.043 2.408 4.274.412.322.822.583 1.234.84.176.194.47.194.763.13.412-.194.646-.325.763-.519.646-.518 1.117-1.102 1.527-1.878.175-.454.412-.713.646-1.167a27.31 27.31 0 001.585-3.174c.763-1.553 1.409-3.174 2.114-4.792l.529-1.23.008-.021c-.01 1.11.021 2.23.167 3.323.117.97.412 2.008.822 3.043.705 1.295 1.468 2.395 2.584 3.368 1.117.841 2.819.712 4.172.777.292-.065.587 0 .821-.194.705-.194 1.234-.712 1.88-1.231.354-.323.705-.777 1.117-1.36.234-.258.412-.519.587-.777.471-.712.881-1.424 1.292-2.137.358-.624.67-1.249.96-1.89.021.468.065.936.157 1.436.176 1.231.646 2.266 1.292 3.239a7.832 7.832 0 003.231 2.526c.47.194.938.194 1.409 0 .47-.193.939-.518 1.409-1.037l1.234-1.618c.412-.454.763-1.037 1.116-1.618.529-.713.939-1.554 1.41-2.33l1.35-2.642v4.778c0 .258.059.454.118.712.058.584.292 1.102.704 1.554l1.058 1.36a3.66 3.66 0 001.292 1.166c.176.13.354.13.588 0l.529-.712c.412-.97.822-1.618 1.234-2.59.411-1.038.88-2.073 1.292-3.175l1.409-4.338c.293-.712.47-1.49.88-2.266 0 .323.059.519 0 .712-.175.454-.117.777-.117 1.102v3.432c0 .777.059 1.49.176 2.202.234 1.489.704 2.72 1.409 3.822.293.454.588.776.939.97.176.064.353.194.587.39.353 0 .608-.065.764-.194.412-.258.763-.583 1.116-1.037.529-.713.939-1.49 1.351-2.266l.705-1.683a25.94 25.94 0 00.922-2.473c-.011.26-.015.525-.042.79-.176 1.748-.059 2.914.234 4.403.353 1.618 1.175 3.043 2.409 4.274.412.322.821.583 1.233.84.176.194.471.194.764.13.411-.194.646-.325.763-.519.646-.518 1.116-1.102 1.526-1.878.176-.454.412-.713.646-1.167a27.665 27.665 0 001.587-3.174c.763-1.553 1.41-3.174 2.114-4.792l.529-1.23.009-.021c-.011 1.11.02 2.23.167 3.323.117.97.412 2.008.822 3.043.704 1.295 1.467 2.395 2.584 3.368 1.116.841 2.818.712 4.171.777.293-.065.588 0 .822-.194.705-.194 1.234-.712 1.88-1.231.353-.323.704-.777 1.116-1.36.234-.258.412-.519.588-.777.47-.712.88-1.424 1.292-2.137.705-1.23 1.234-2.46 1.763-3.821.47-1.231.704-2.527 1.116-3.755.176-.454.117-.648.293-1.102.058-.323.058-.648 0-.842l.027.042zm-12.805.194c.176-.519.354-1.102.646-1.619a.995.995 0 00.235-.39c.058-.128.175-.257.234-.453.412-.454.646-.841 1.058-1.296.412-.583 1.058-.97 1.938-1.101.059.193.117.129.176.322.412 1.36.646 2.656.234 4.145-.117.648-.412 1.23-.822 1.814-.234.258-.47.454-.646.712-.412.325-.822.454-1.175.454-.529.065-1.117.065-1.646-.129-.234-.064-.529-.194-.587-.454 0-.712.117-1.36.353-2.008l.002.003zm-55.743 0c.175-.519.353-1.102.646-1.619.058-.064.175-.193.234-.39.058-.128.175-.257.234-.453.412-.454.646-.841 1.058-1.296.412-.583 1.058-.97 1.938-1.101.059.193.117.129.176.322.412 1.36.646 2.656.234 4.145-.117.648-.412 1.23-.822 1.814-.234.258-.47.454-.646.712-.412.325-.821.454-1.175.454-.529.065-1.116.065-1.645-.129-.235-.064-.529-.194-.588-.454 0-.712.117-1.36.353-2.008l.003.003zM91.589 27.702c.059.194 0 .258-.175.194l.175-.194zm24.144 13.73c-1.526.322-2.233 4.466-.999 5.633-.293 1.553-.293 1.424-.941 2.978-.412.777-.646 1.618-1.058 2.33l-.234.583c-.293.323-.412.713-.588.97-.412.455-.763.907-1.175 1.103-.293.193-.471.258-.588.258l-.292-.841c-.176-.326-.293-.842-.293-1.296-.059-.712 0-1.23-.059-1.814-.058-.065 0-.258.059-.454-.176-.454-.117-1.037-.059-1.554v-.841c.176-.583.176-1.037.235-1.554.039 0 .058-.021.058-.064 0-.712.293-1.425.471-2.137.117-.777.292-1.425.587-1.943a8.687 8.687 0 00.705-1.879c.175-.322.292-.712.529-1.037.175-.323.175-.648.47-.906l.529-.906c.176-.194.234-.39.412-.648.293-.193.471-.39 1-.583.175.194.353.13.587.323.293.454.353.777.293 1.037.175.713.175 1.231.353 1.747.059.52 0 1.038 0 1.49l-.002.004z"/><path d="M84.716 36.25v-.063l.057.062h-.057zm18.263 30.509h-.977l-1.988 3.013h-.851v-3.013h-.795v7.485h.795v-3.64h.895l2.193 3.64h.958l-2.478-4.106 2.248-3.379zm5.078-.083c-1.861 0-3.266 1.637-3.266 3.815s1.374 3.82 3.266 3.82c1.893 0 3.266-1.603 3.266-3.82 0-2.218-1.405-3.815-3.266-3.815zm0 6.81c-1.409 0-2.433-1.241-2.433-2.995s1.045-2.98 2.433-2.98c1.389 0 2.434 1.26 2.434 2.98s-1.024 2.994-2.434 2.994zm9.021-5.883v-1.021h-.772v1.02c-1.192 0-3.04.593-3.04 2.755 0 1.528 1.116 2.799 3.04 2.799v1.173h.772v-1.173c1.923 0 3.04-1.27 3.04-2.799 0-2.164-1.849-2.754-3.04-2.754zm-.772 4.725c-1.192 0-2.229-.694-2.229-1.969 0-1.274.847-1.915 2.229-1.915v3.884zm.772 0v-3.884c1.386 0 2.233.685 2.233 1.915 0 1.231-1.042 1.969-2.233 1.969zm6.059-1.719h2.367v-.826h-2.367v-2.19h2.645v-.834h-3.437v7.485h3.535v-.826h-2.743v-2.81zm11.866 2.876c-1.414 0-2.438-1.235-2.438-2.994 0-1.759 1.05-2.98 2.434-2.98.589 0 1.02.23 1.453.668l.673-.498c-.585-.65-1.275-1.007-2.126-1.007-1.861 0-3.262 1.64-3.262 3.815 0 2.173 1.374 3.819 3.266 3.819.943 0 1.809-.396 2.388-1.109l-.617-.571c-.487.58-1.085.855-1.773.855l.002.002zm11.373 0c-1.414 0-2.438-1.235-2.438-2.994 0-1.759 1.049-2.98 2.433-2.98.59 0 1.021.23 1.454.668l.673-.498c-.586-.65-1.276-1.007-2.127-1.007-1.861 0-3.262 1.64-3.262 3.815 0 2.173 1.374 3.819 3.267 3.819.943 0 1.808-.396 2.387-1.109l-.616-.571c-.488.58-1.086.855-1.774.855l.003.002zm7.454-6.809c-1.861 0-3.266 1.637-3.266 3.815s1.373 3.82 3.266 3.82c1.892 0 3.266-1.603 3.266-3.82 0-2.218-1.405-3.815-3.266-3.815zm0 6.81c-1.41 0-2.434-1.241-2.434-2.995s1.045-2.98 2.434-2.98c1.388 0 2.433 1.26 2.433 2.98s-1.024 2.994-2.433 2.994zm7.376-3.707h-1.093v-2.19h2.751v-.83h-3.546v7.485h2.102c1.357 0 2.061-.803 2.061-2.273 0-1.314-.89-2.195-2.273-2.195l-.002.003zm-.146 3.64h-.949v-2.815h1.129c.922 0 1.422.475 1.422 1.367s-.253 1.445-1.604 1.445l.002.002zm7.615-6.743c-1.861 0-3.266 1.637-3.266 3.815s1.374 3.82 3.266 3.82 3.266-1.603 3.266-3.82c0-2.218-1.405-3.815-3.266-3.815zm0 6.81c-1.409 0-2.434-1.241-2.434-2.995s1.046-2.98 2.434-2.98c1.388 0 2.434 1.26 2.434 2.98s-1.025 2.994-2.434 2.994zm8.035-7.543c.634 0 1.387-.392 1.64-1.256l-.692-.196c-.159.454-.496.698-.95.698-.453 0-.744-.235-.934-.698l-.705.196a1.737 1.737 0 001.639 1.256h.002zm-1.758 6.233v-5.417h-.795v7.743l4.314-5.666v5.407h.792v-7.75l-4.311 5.683zM59.124 42.66l2.223-18.323-14.711-7.777a.593.593 0 00-.01-.062L43.416 3.12c-.059-.243-.286-.388-.505-.324-.22.064-.352.314-.294.555l3.21 13.378c.005.02.013.037.018.053l-10.85 12.554-14.137-.44-5.932-12.105c-.108-.222-.358-.303-.56-.184-.202.12-.275.396-.167.618l5.705 11.64-1.112-.033-.634 1.134-5.728-11.688c-.108-.222-.358-.303-.56-.184-.202.12-.275.395-.167.618l5.956 12.151-7.272 13.02-12.51-1c-.227-.02-.425.17-.443.42-.017.25.155.468.382.488l12.416.993 6.711 13.692-6.094 12.081c-.11.22-.04.498.16.62a.376.376 0 00.398.002c.066-.04.124-.1.165-.18l5.838-11.572.572 1.168 1.12.035-5.775 11.446a.483.483 0 00.161.62.375.375 0 00.397.002c.066-.04.124-.1.165-.18l5.984-11.86 14.105.437 5.825 11.883c.108.222.358.303.56.184a.48.48 0 00.166-.618l-5.825-11.882 8.248-14.77 16.015-3.234-.004.002zm-.738-.775l-15.302 3.091-7.405-15.108L46.411 17.45l14.038 7.42-2.063 17.012v.002zm-47.361 2.602l8.223-14.726 15.666.487 7.462 15.226-8.216 14.713-15.68-.487-7.457-15.213h.002z"/><path d="M37.69 29.21a.48.48 0 00-.166.617l5.967 12.176c.108.222.358.303.56.183a.48.48 0 00.167-.617L38.25 29.394c-.109-.222-.359-.304-.56-.184zm19.533 6.58a.375.375 0 00.25-.051.452.452 0 00.213-.34l1.192-9.821c.03-.25-.128-.479-.355-.51-.225-.035-.434.14-.463.39l-1.192 9.821c-.03.25.128.479.355.51z"/></g><defs><clipPath id="clip0_26_133"><path fill="#fff" transform="translate(-6)" d="M0 0h212v76H0z"/></clipPath></defs></svg>