<svg width="40" height="45" viewBox="0 0 40 45" fill="none" xmlns="http://www.w3.org/2000/svg">
<path d="M34.1421 5.82913C30.3647 2.07018 25.3422 0 20 0C14.6578 0 9.63531 2.07018 5.85788 5.82913C2.08035 9.58826 0 14.5861 0 19.9022C0 29.2807 6.58885 37.3776 15.7422 39.3507L20 45L24.2579 39.3506C33.4112 37.3775 40 29.2807 40 19.9022C40 14.5861 37.9196 9.58826 34.1421 5.82913ZM20 5.19569C28.1003 5.19569 34.6903 11.7535 34.6903 19.8141C34.6903 27.8746 28.1003 34.4325 20 34.4325C11.8997 34.4325 5.30973 27.8746 5.30973 19.8141C5.30973 11.7535 11.8997 5.19569 20 5.19569Z" fill="#D37E56"/>
<g clip-path="url(#clip0_1411_24)">
<path d="M20 34.5C28.2843 34.5 35 27.7843 35 19.5C35 11.2157 28.2843 4.5 20 4.5C11.7157 4.5 5 11.2157 5 19.5C5 27.7843 11.7157 34.5 20 34.5Z" fill="black"/>
<path d="M5 34.1291V34.1118L5.01726 34.1291H5Z" fill="white"/>
<path d="M28.3109 19.8826L28.5256 20.0974L28.5791 19.6963L29.2787 14.4594L29.298 14.3154L29.167 14.2526L24.6185 12.07L23.6266 8.31951C23.5806 8.13406 23.393 8.04059 23.2275 8.08092C23.0396 8.12602 22.9451 8.31585 22.9867 8.48252L22.9867 8.48252L22.9874 8.48514L23.9741 12.2164L20.6955 15.658L16.4475 15.5391L14.6331 12.1824L14.6328 12.1817C14.5487 12.0276 14.3502 11.9584 14.1858 12.0481C14.0319 12.132 13.9627 12.3302 14.0519 12.4945L14.0518 12.4944L14.2278 12.3993L14.0522 12.495L28.3109 19.8826ZM28.3109 19.8826L23.4573 20.771L20.9673 24.817L22.7474 28.1107L28.3109 19.8826ZM15.6864 15.519L15.6799 15.5188L15.5649 15.516L15.5047 15.6141L15.4879 15.6414M15.6864 15.519L9.09931 19.5327L9.09874 19.5327L9.08426 19.7322M15.6864 15.519L15.9167 15.5245L12.7999 20.3681L12.9759 20.2731L9.06444 19.9899C8.99363 19.9842 8.93981 19.9219 8.94548 19.8511C8.95114 19.7803 9.01345 19.7265 9.08426 19.7322M15.6864 15.519L15.7959 15.7217L15.6751 15.7188L15.5977 15.8447L15.4879 15.6414M15.4879 15.6414L13.8486 12.6073L13.8482 12.6066C13.7642 12.4525 13.5656 12.3833 13.4013 12.4729C13.2473 12.5569 13.1781 12.7552 13.2674 12.9195L13.2672 12.9191L13.4432 12.8241M15.4879 15.6414L15.367 15.8383L13.6726 12.7023C13.6386 12.64 13.5593 12.6145 13.497 12.6485C13.4347 12.6825 13.4092 12.7618 13.4432 12.8241M13.4432 12.8241L13.2676 12.9199L15.0874 16.29M13.4432 12.8241L15.3182 16.2965M15.0874 16.29L12.9202 19.81M15.0874 16.29L15.1479 16.1917L15.3182 16.2965M15.0874 16.29L15.1422 16.3916L15.3182 16.2965M12.9202 19.81L9.10021 19.5328L9.08426 19.7322M12.9202 19.81L13.0413 19.8187L13.0269 20.0182M12.9202 19.81L12.8566 19.9134L13.0269 20.0182M9.08426 19.7322L13.0269 20.0182M15.3182 16.2965L13.0269 20.0182M28.5797 14.7061L27.9668 19.2789L23.4349 20.1097L21.2393 16.0489L24.4205 12.7104L28.5797 14.7061Z" fill="white" stroke="white" stroke-width="0.4"/>
<path d="M22 15.9998L23.75 19.4998" stroke="white" stroke-linecap="round" stroke-linejoin="round"/>
<path d="M27.933 14.9998L27.6644 16.7957" stroke="white" stroke-linecap="round" stroke-linejoin="round"/>
</g>
<defs>
<clipPath id="clip0_1411_24">
<rect width="30" height="30" fill="white" transform="translate(5 4.5)"/>
</clipPath>
</defs>
</svg>
