<svg width="40" height="45" fill="none" xmlns="http://www.w3.org/2000/svg"><path d="M34.142 5.83C30.365 2.07 25.342 0 20 0 14.658 0 9.635 2.07 5.858 5.83 2.08 9.587 0 14.585 0 19.901 0 29.28 6.589 37.377 15.742 39.35L20 45l4.258-5.65C33.41 37.378 40 29.28 40 19.903c0-5.316-2.08-10.314-5.858-14.073zM20 5.195c8.1 0 14.69 6.558 14.69 14.618S28.1 34.432 20 34.432 5.31 27.875 5.31 19.814c0-8.06 6.59-14.618 14.69-14.618z" fill="#D37E56"/><g clip-path="url(#clip0_1411_24)"><path d="M20 34.5c8.284 0 15-6.716 15-15 0-8.284-6.716-15-15-15-8.284 0-15 6.716-15 15 0 8.284 6.716 15 15 15z" fill="#000"/><path d="M5 34.13v-.018l.017.017H5z" fill="#fff"/><path d="M28.31 19.883l.216.214.053-.4.7-5.238.019-.144-.131-.062-4.549-2.183-.991-3.75a.33.33 0 00-.64.163h0v.002l.987 3.731-3.279 3.442-4.247-.119-1.815-3.357h0a.33.33 0 00-.447-.134.33.33 0 00-.134.447h0l.176-.096-.176.096 14.259 7.388zm0 0l-4.853.888-2.49 4.046 1.78 3.294 5.564-8.228zm-12.624-4.364h-.006l-.115-.003-.06.098-.017.027m.198-.122L9.1 19.533h0l-.015.2m6.602-4.214l.23.005-3.116 4.844.176-.095-3.912-.283a.13.13 0 01-.119-.139.13.13 0 01.14-.119m6.601-4.213l.11.203-.12-.003-.078.126-.11-.204m0 0l-1.64-3.034h0a.33.33 0 00-.447-.134.33.33 0 00-.134.446h0l.176-.095m2.045 2.817l-.121.197-1.694-3.136a.13.13 0 00-.176-.053.13.13 0 00-.054.175m0 0l-.175.096 1.82 3.37m-1.645-3.466l1.875 3.473m-.23-.007l-2.168 3.52m2.167-3.52l.06-.098.171.105m-.23-.007l.054.102.176-.095M12.92 19.81l-3.82-.277-.016.2m3.836.077l.121.009-.014.2m-.107-.209l-.063.103.17.105m-3.943-.286l3.943.286m2.291-3.721l-2.291 3.721m15.553-5.312l-.613 4.573-4.532.83-2.196-4.06 3.181-3.339 4.16 1.996z" fill="#fff" stroke="#fff" stroke-width=".4"/><path d="M22 16l1.75 3.5m4.183-4.5l-.269 1.796" stroke="#fff" stroke-linecap="round" stroke-linejoin="round"/></g><defs><clipPath id="clip0_1411_24"><path fill="#fff" transform="translate(5 4.5)" d="M0 0h30v30H0z"/></clipPath></defs></svg>